<mxfile host="app.diagrams.net" modified="2021-08-22T22:50:23.125Z" agent="5.0 (Windows NT 10.0; Win64; x64) AppleWebKit/537.36 (KHTML, like Gecko) Chrome/92.0.4515.159 Safari/537.36" etag="YHYdp8Hj6YiYPZiHeBMS" version="14.9.8" type="github">
  <diagram id="PnZ1r_uK-yxBXtuT58ZT" name="Page-1">
    <mxGraphModel dx="868" dy="450" grid="1" gridSize="10" guides="1" tooltips="1" connect="1" arrows="1" fold="1" page="1" pageScale="1" pageWidth="827" pageHeight="1169" math="0" shadow="0">
      <root>
        <mxCell id="0" />
        <mxCell id="1" parent="0" />
        <mxCell id="utsjku1sAmCLZbGNxqtM-1" value="Login" style="swimlane;fontStyle=0;childLayout=stackLayout;horizontal=1;startSize=26;horizontalStack=0;resizeParent=1;resizeParentMax=0;resizeLast=0;collapsible=1;marginBottom=0;" vertex="1" parent="1">
          <mxGeometry x="344" y="20" width="140" height="78" as="geometry" />
        </mxCell>
        <mxCell id="utsjku1sAmCLZbGNxqtM-2" value="Usuario" style="text;strokeColor=none;fillColor=#9999FF;align=left;verticalAlign=top;spacingLeft=4;spacingRight=4;overflow=hidden;rotatable=0;points=[[0,0.5],[1,0.5]];portConstraint=eastwest;" vertex="1" parent="utsjku1sAmCLZbGNxqtM-1">
          <mxGeometry y="26" width="140" height="26" as="geometry" />
        </mxCell>
        <mxCell id="utsjku1sAmCLZbGNxqtM-3" value="contraseña" style="text;strokeColor=none;fillColor=none;align=left;verticalAlign=top;spacingLeft=4;spacingRight=4;overflow=hidden;rotatable=0;points=[[0,0.5],[1,0.5]];portConstraint=eastwest;" vertex="1" parent="utsjku1sAmCLZbGNxqtM-1">
          <mxGeometry y="52" width="140" height="26" as="geometry" />
        </mxCell>
        <mxCell id="utsjku1sAmCLZbGNxqtM-5" value="" style="endArrow=classic;html=1;" edge="1" parent="1" source="utsjku1sAmCLZbGNxqtM-1" target="utsjku1sAmCLZbGNxqtM-6">
          <mxGeometry width="50" height="50" relative="1" as="geometry">
            <mxPoint x="390" y="260" as="sourcePoint" />
            <mxPoint x="414" y="160" as="targetPoint" />
          </mxGeometry>
        </mxCell>
        <mxCell id="utsjku1sAmCLZbGNxqtM-26" value="" style="edgeStyle=orthogonalEdgeStyle;rounded=0;orthogonalLoop=1;jettySize=auto;html=1;" edge="1" parent="1" source="utsjku1sAmCLZbGNxqtM-6" target="utsjku1sAmCLZbGNxqtM-24">
          <mxGeometry relative="1" as="geometry" />
        </mxCell>
        <mxCell id="utsjku1sAmCLZbGNxqtM-6" value="Inicio" style="swimlane;fontStyle=0;childLayout=stackLayout;horizontal=1;startSize=26;horizontalStack=0;resizeParent=1;resizeParentMax=0;resizeLast=0;collapsible=1;marginBottom=0;" vertex="1" parent="1">
          <mxGeometry x="344" y="140" width="140" height="52" as="geometry" />
        </mxCell>
        <mxCell id="utsjku1sAmCLZbGNxqtM-7" value="Categoría" style="text;strokeColor=none;fillColor=none;align=left;verticalAlign=top;spacingLeft=4;spacingRight=4;overflow=hidden;rotatable=0;points=[[0,0.5],[1,0.5]];portConstraint=eastwest;" vertex="1" parent="utsjku1sAmCLZbGNxqtM-6">
          <mxGeometry y="26" width="140" height="26" as="geometry" />
        </mxCell>
        <mxCell id="utsjku1sAmCLZbGNxqtM-10" value="" style="endArrow=classic;html=1;" edge="1" parent="1" source="utsjku1sAmCLZbGNxqtM-7" target="utsjku1sAmCLZbGNxqtM-11">
          <mxGeometry width="50" height="50" relative="1" as="geometry">
            <mxPoint x="390" y="260" as="sourcePoint" />
            <mxPoint x="550" y="179" as="targetPoint" />
          </mxGeometry>
        </mxCell>
        <mxCell id="utsjku1sAmCLZbGNxqtM-21" value="" style="edgeStyle=orthogonalEdgeStyle;rounded=0;orthogonalLoop=1;jettySize=auto;html=1;" edge="1" parent="1" source="utsjku1sAmCLZbGNxqtM-11" target="utsjku1sAmCLZbGNxqtM-16">
          <mxGeometry relative="1" as="geometry" />
        </mxCell>
        <mxCell id="utsjku1sAmCLZbGNxqtM-11" value="Categoría" style="swimlane;fontStyle=0;childLayout=stackLayout;horizontal=1;startSize=26;horizontalStack=0;resizeParent=1;resizeParentMax=0;resizeLast=0;collapsible=1;marginBottom=0;" vertex="1" parent="1">
          <mxGeometry x="560" y="114" width="140" height="130" as="geometry" />
        </mxCell>
        <mxCell id="utsjku1sAmCLZbGNxqtM-12" value="Nombre" style="text;strokeColor=none;fillColor=none;align=left;verticalAlign=top;spacingLeft=4;spacingRight=4;overflow=hidden;rotatable=0;points=[[0,0.5],[1,0.5]];portConstraint=eastwest;" vertex="1" parent="utsjku1sAmCLZbGNxqtM-11">
          <mxGeometry y="26" width="140" height="26" as="geometry" />
        </mxCell>
        <mxCell id="utsjku1sAmCLZbGNxqtM-13" value="Descripción" style="text;strokeColor=none;fillColor=none;align=left;verticalAlign=top;spacingLeft=4;spacingRight=4;overflow=hidden;rotatable=0;points=[[0,0.5],[1,0.5]];portConstraint=eastwest;" vertex="1" parent="utsjku1sAmCLZbGNxqtM-11">
          <mxGeometry y="52" width="140" height="26" as="geometry" />
        </mxCell>
        <mxCell id="utsjku1sAmCLZbGNxqtM-14" value="Cantidad de productos" style="text;strokeColor=none;fillColor=none;align=left;verticalAlign=top;spacingLeft=4;spacingRight=4;overflow=hidden;rotatable=0;points=[[0,0.5],[1,0.5]];portConstraint=eastwest;" vertex="1" parent="utsjku1sAmCLZbGNxqtM-11">
          <mxGeometry y="78" width="140" height="26" as="geometry" />
        </mxCell>
        <mxCell id="utsjku1sAmCLZbGNxqtM-15" value="Imágen" style="text;strokeColor=none;fillColor=none;align=left;verticalAlign=top;spacingLeft=4;spacingRight=4;overflow=hidden;rotatable=0;points=[[0,0.5],[1,0.5]];portConstraint=eastwest;" vertex="1" parent="utsjku1sAmCLZbGNxqtM-11">
          <mxGeometry y="104" width="140" height="26" as="geometry" />
        </mxCell>
        <mxCell id="utsjku1sAmCLZbGNxqtM-16" value="Producto" style="swimlane;fontStyle=0;childLayout=stackLayout;horizontal=1;startSize=26;horizontalStack=0;resizeParent=1;resizeParentMax=0;resizeLast=0;collapsible=1;marginBottom=0;fillColor=#80FF00;" vertex="1" parent="1">
          <mxGeometry x="560" y="290" width="190" height="182" as="geometry" />
        </mxCell>
        <mxCell id="utsjku1sAmCLZbGNxqtM-17" value="Nombre" style="text;strokeColor=none;fillColor=none;align=left;verticalAlign=top;spacingLeft=4;spacingRight=4;overflow=hidden;rotatable=0;points=[[0,0.5],[1,0.5]];portConstraint=eastwest;" vertex="1" parent="utsjku1sAmCLZbGNxqtM-16">
          <mxGeometry y="26" width="190" height="26" as="geometry" />
        </mxCell>
        <mxCell id="utsjku1sAmCLZbGNxqtM-18" value="Descripción" style="text;strokeColor=none;fillColor=none;align=left;verticalAlign=top;spacingLeft=4;spacingRight=4;overflow=hidden;rotatable=0;points=[[0,0.5],[1,0.5]];portConstraint=eastwest;" vertex="1" parent="utsjku1sAmCLZbGNxqtM-16">
          <mxGeometry y="52" width="190" height="26" as="geometry" />
        </mxCell>
        <mxCell id="utsjku1sAmCLZbGNxqtM-19" value="Cantidad de artículos vendidos" style="text;strokeColor=none;fillColor=none;align=left;verticalAlign=top;spacingLeft=4;spacingRight=4;overflow=hidden;rotatable=0;points=[[0,0.5],[1,0.5]];portConstraint=eastwest;" vertex="1" parent="utsjku1sAmCLZbGNxqtM-16">
          <mxGeometry y="78" width="190" height="26" as="geometry" />
        </mxCell>
        <mxCell id="utsjku1sAmCLZbGNxqtM-22" value="Imágen" style="text;strokeColor=none;fillColor=none;align=left;verticalAlign=top;spacingLeft=4;spacingRight=4;overflow=hidden;rotatable=0;points=[[0,0.5],[1,0.5]];portConstraint=eastwest;" vertex="1" parent="utsjku1sAmCLZbGNxqtM-16">
          <mxGeometry y="104" width="190" height="26" as="geometry" />
        </mxCell>
        <mxCell id="utsjku1sAmCLZbGNxqtM-23" value="Costo" style="text;strokeColor=none;fillColor=none;align=left;verticalAlign=top;spacingLeft=4;spacingRight=4;overflow=hidden;rotatable=0;points=[[0,0.5],[1,0.5]];portConstraint=eastwest;" vertex="1" parent="utsjku1sAmCLZbGNxqtM-16">
          <mxGeometry y="130" width="190" height="26" as="geometry" />
        </mxCell>
        <mxCell id="utsjku1sAmCLZbGNxqtM-20" value="Moneda" style="text;strokeColor=none;fillColor=none;align=left;verticalAlign=top;spacingLeft=4;spacingRight=4;overflow=hidden;rotatable=0;points=[[0,0.5],[1,0.5]];portConstraint=eastwest;" vertex="1" parent="utsjku1sAmCLZbGNxqtM-16">
          <mxGeometry y="156" width="190" height="26" as="geometry" />
        </mxCell>
        <mxCell id="utsjku1sAmCLZbGNxqtM-24" value="Vender" style="swimlane;fontStyle=0;childLayout=stackLayout;horizontal=1;startSize=26;horizontalStack=0;resizeParent=1;resizeParentMax=0;resizeLast=0;collapsible=1;marginBottom=0;" vertex="1" parent="1">
          <mxGeometry x="344" y="272" width="140" height="78" as="geometry" />
        </mxCell>
        <mxCell id="utsjku1sAmCLZbGNxqtM-27" value="Producto" style="text;strokeColor=none;fillColor=#80FF00;align=left;verticalAlign=top;spacingLeft=4;spacingRight=4;overflow=hidden;rotatable=0;points=[[0,0.5],[1,0.5]];portConstraint=eastwest;" vertex="1" parent="utsjku1sAmCLZbGNxqtM-24">
          <mxGeometry y="26" width="140" height="26" as="geometry" />
        </mxCell>
        <mxCell id="utsjku1sAmCLZbGNxqtM-25" value="Tipo de publicación" style="text;strokeColor=none;fillColor=none;align=left;verticalAlign=top;spacingLeft=4;spacingRight=4;overflow=hidden;rotatable=0;points=[[0,0.5],[1,0.5]];portConstraint=eastwest;" vertex="1" parent="utsjku1sAmCLZbGNxqtM-24">
          <mxGeometry y="52" width="140" height="26" as="geometry" />
        </mxCell>
        <mxCell id="utsjku1sAmCLZbGNxqtM-29" value="" style="endArrow=classic;html=1;exitX=0;exitY=0.25;exitDx=0;exitDy=0;" edge="1" parent="1" source="utsjku1sAmCLZbGNxqtM-6" target="utsjku1sAmCLZbGNxqtM-30">
          <mxGeometry width="50" height="50" relative="1" as="geometry">
            <mxPoint x="390" y="270" as="sourcePoint" />
            <mxPoint x="240" y="380" as="targetPoint" />
          </mxGeometry>
        </mxCell>
        <mxCell id="utsjku1sAmCLZbGNxqtM-30" value="Carrito" style="swimlane;fontStyle=0;childLayout=stackLayout;horizontal=1;startSize=26;horizontalStack=0;resizeParent=1;resizeParentMax=0;resizeLast=0;collapsible=1;marginBottom=0;" vertex="1" parent="1">
          <mxGeometry x="120" y="100" width="140" height="104" as="geometry" />
        </mxCell>
        <mxCell id="utsjku1sAmCLZbGNxqtM-31" value="Usuario" style="text;strokeColor=none;fillColor=#9999FF;align=left;verticalAlign=top;spacingLeft=4;spacingRight=4;overflow=hidden;rotatable=0;points=[[0,0.5],[1,0.5]];portConstraint=eastwest;" vertex="1" parent="utsjku1sAmCLZbGNxqtM-30">
          <mxGeometry y="26" width="140" height="26" as="geometry" />
        </mxCell>
        <mxCell id="utsjku1sAmCLZbGNxqtM-32" value="Productos" style="text;strokeColor=none;fillColor=#80FF00;align=left;verticalAlign=top;spacingLeft=4;spacingRight=4;overflow=hidden;rotatable=0;points=[[0,0.5],[1,0.5]];portConstraint=eastwest;" vertex="1" parent="utsjku1sAmCLZbGNxqtM-30">
          <mxGeometry y="52" width="140" height="26" as="geometry" />
        </mxCell>
        <mxCell id="utsjku1sAmCLZbGNxqtM-33" value="Monto total" style="text;strokeColor=none;fillColor=none;align=left;verticalAlign=top;spacingLeft=4;spacingRight=4;overflow=hidden;rotatable=0;points=[[0,0.5],[1,0.5]];portConstraint=eastwest;" vertex="1" parent="utsjku1sAmCLZbGNxqtM-30">
          <mxGeometry y="78" width="140" height="26" as="geometry" />
        </mxCell>
      </root>
    </mxGraphModel>
  </diagram>
</mxfile>
